#!OML:ASF H:\Terrain\Patient Classification 1\Takeo\Monday\TakeoMonday.ASF
:FULLY-SPECIFIED
:DEGREES
493
root 10.5855 17.4959 -2.10241 15.2429 -19.3862 -4.57211
lowerback 18.6437 0.58195 0.361588
upperback 10.2235 0.645785 -0.597235
thorax 0.547461 0.289143 -0.948438
lowerneck -10.9058 7.05984 2.11686
upperneck -13.735 8.67017 -8.05147
head -2.0949 4.40016 -2.81394
rclavicle 3.33958e-014 -4.49253e-014
rhumerus 27.3176 52.4903 -86.6318
rradius 33.3686
rwrist -31.3618
rhand -39.3578 11.7626
rfingers 7.12502
rthumb -12.3487 -17.8527
lclavicle 3.33958e-014 -4.49253e-014
lhumerus 31.1494 -7.48651 88.7329
lradius 35.7444
lwrist 45.1801
lhand -39.2843 31.3029
lfingers 7.12502
lthumb -12.2778 60.9225
rfemur -11.0682 0.861188 22.2898
rtibia 21.0957
rfoot -20.5621 -19.2597
rtoes -10.4423
lfemur -41.4764 9.55123 -20.2716
ltibia 36.5666
lfoot -4.59013 4.25762
ltoes -0.191783
494
root 10.5541 17.5023 -2.12392 14.8407 -18.9124 -4.45322
lowerback 18.2414 0.661897 0.573196
upperback 10.1306 0.791925 -0.393751
thorax 0.655034 0.36791 -0.874711
lowerneck -11.0756 6.82619 1.46494
upperneck -13.6276 8.46721 -7.35793
head -2.10026 4.31156 -2.46923
rclavicle -3.97569e-016 1.19271e-015
rhumerus 28.1184 52.096 -85.7654
rradius 33.523
rwrist -31.2183
rhand -39.5989 12.4217
rfingers 7.12502
rthumb -12.5811 -17.1795
lclavicle -3.97569e-016 1.19271e-015
lhumerus 31.6179 -8.29177 88.248
lradius 36.7117
lwrist 45.5202
lhand -39.3126 31.7042
lfingers 7.12502
lthumb -12.3051 61.3222
rfemur -10.7656 0.584793 22.4042
rtibia 21.2483
rfoot -20.5818 -19.3233
rtoes -9.52069
lfemur -40.9988 9.07793 -20.0629
ltibia 36.2593
lfoot -4.52597 4.20043
ltoes -0.372205
495
root 10.5235 17.5034 -2.14159 14.2527 -18.4961 -4.06293
lowerback 17.7574 0.759739 0.612901
upperback 10.1422 0.930411 -0.312271
thorax 0.917042 0.440102 -0.828127
lowerneck -10.8941 6.61473 1.00879
upperneck -13.8486 8.2412 -6.98746
head -2.24961 4.2195 -2.29441
rclavicle 8.74653e-015 3.97569e-016
rhumerus 28.8653 51.5697 -85.0253
rradius 33.6874
rwrist -31.1991
rhand -40.2666 13.678
rfingers 7.12502
rthumb -13.2247 -15.8825
lclavicle 8.74653e-015 3.97569e-016
lhumerus 32.141 -9.00597 87.9944
lradius 37.6246
lwrist 45.6432
lhand -40.0457 30.7257
lfingers 7.12502
lthumb -13.0118 60.2999
rfemur -10.361 0.309715 22.2299
rtibia 21.5057
rfoot -20.6453 -19.6515
rtoes -10.2754
lfemur -40.3117 8.76588 -20.2404
ltibia 35.8289
lfoot -4.34795 3.97679
ltoes -1.85477
496
root 10.4972 17.5103 -2.15577 13.4825 -18.0712 -3.36433
lowerback 17.3843 0.770568 0.498872
upperback 10.1552 0.932035 -0.452907
thorax 1.12323 0.444182 -0.906641
lowerneck -11.077 6.6276 1.35209
upperneck -13.6967 8.22892 -7.07115
head -2.15105 4.19292 -2.36598
rclavicle -1.07344e-014 -1.90833e-014
rhumerus 29.5984 51.1687 -84.6435
rradius 33.8097
rwrist -31.1102
rhand -41.0946 15.066
rfingers 7.12502
rthumb -14.0228 -14.441
lclavicle -1.07344e-014 -1.90833e-014
lhumerus 32.5982 -9.61159 87.4903
lradius 38.6479
lwrist 45.7401
lhand -40.1081 30.1979
lfingers 7.12502
lthumb -13.072 59.7683
rfemur -9.82273 0.19671 21.6868
rtibia 21.7852
rfoot -21.1653 -19.8102
rtoes -9.02238
lfemur -39.4259 8.29335 -20.7085
ltibia 35.3709
lfoot -4.06353 3.65638
ltoes -5.33548
497
root 10.47 17.5104 -2.17513 12.9701 -17.5919 -3.01001
lowerback 16.9562 0.743596 0.665697
upperback 10.0643 0.926278 -0.526568
thorax 1.25023 0.454438 -1.07176
lowerneck -11.5435 6.72838 1.84394
upperneck -13.2296 8.33145 -7.14769
head -1.89011 4.20777 -2.43374
rclavicle -1.53064e-014 6.75868e-015
rhumerus 30.4421 50.8645 -84.2572
rradius 33.7734
rwrist -30.689
rhand -42.0472 16.5051
rfingers 7.12502
rthumb -14.9406 -12.936
lclavicle -1.53064e-014 6.75868e-015
lhumerus 32.9129 -10.316 86.6376
lradius 39.8414
lwrist 45.9507
lhand -39.4675 30.4747
lfingers 7.12502
lthumb -12.4544 60.0836
rfemur -9.48177 -0.103718 21.5503
rtibia 22.0232
rfoot -21.3175 -20.0612
rtoes -8.76864
lfemur -38.7735 7.63737 -20.7113
ltibia 34.978
lfoot -3.83664 3.38337
ltoes -8.73268
498
root 10.4395 17.4964 -2.20318 12.489 -17.0311 -3.09198
lowerback 16.8256 0.738746 1.11241
upperback 9.82566 0.990248 -0.390808
thorax 1.06897 0.502572 -1.19075
lowerneck -11.525 6.64665 1.92177
upperneck -12.8976 8.24152 -6.9529
head -1.79185 4.15117 -2.37445
rclavicle -7.55382e-015 5.96354e-016
rhumerus 30.7921 50.4264 -84.07
rradius 33.6823
rwrist -29.8712
rhand -42.3875 17.364
rfingers 7.12502
rthumb -15.2684 -12.0525
lclavicle -7.55382e-015 5.96354e-016
lhumerus 33.044 -11.3344 85.6861
lradius 40.9704
lwrist 46.5252
lhand -41.0252 31.511
lfingers 7.12502
lthumb -13.956 61.0226
rfemur -9.04048 -0.580413 21.9516
rtibia 22.1801
rfoot -20.9244 -20.5489
rtoes -10.932
lfemur -38.1777 7.13219 -20.2829
ltibia 34.6423
lfoot -3.68831 3.18664
ltoes -10.1826
499
root 10.412 17.4973 -2.22525 11.8881 -16.4305 -3.15313
lowerback 16.8738 0.724901 1.55759
upperback 9.45321 1.04799 -0.222004
thorax 0.65231 0.542878 -1.27765
lowerneck -10.838 6.38452 2.08534
upperneck -12.7882 7.88735 -6.90476
head -1.87836 3.97325 -2.42042
rclavicle 4.51241e-014 1.27222e-014
rhumerus 30.4716 49.9941 -84.2991
rradius 33.7937
rwrist -29.3109
rhand -41.646 16.6424
rfingers 7.12502
rthumb -14.5541 -12.827
lclavicle 4.51241e-014 1.27222e-014
lhumerus 32.9765 -12.5531 84.6822
lradius 42.1131
lwrist 47.1987
lhand -44.6602 32.6239
lfingers 7.12502
lthumb -17.4566 61.8601
rfemur -8.40791 -0.901218 22.25
rtibia 22.2691
rfoot -20.9097 -20.7618
rtoes -10.6865
lfemur -37.524 6.70353 -19.9751
ltibia 34.3741
lfoot -3.63651 3.32741
ltoes -8.20865
500
root 10.3871 17.5098 -2.2355 11.1889 -15.8959 -2.99766
lowerback 16.545 0.714161 1.83079
upperback 9.39204 1.07425 -0.109413
thorax 0.762132 0.566659 -1.31284
lowerneck -10.4826 6.25345 2.26617
upperneck -12.8703 7.68612 -7.039
head -1.96085 3.87216 -2.51816
rclavicle 5.397e-014 -1.21259e-014
rhumerus 30.756 49.5843 -84.1154
rradius 34.0427
rwrist -29.0306
rhand -41.9263 16.2069
rfingers 7.12502
rthumb -14.8241 -13.2428
lclavicle 5.397e-014 -1.21259e-014
lhumerus 33.3155 -13.536 83.6638
lradius 43.5169
lwrist 47.8836
lhand -45.6763 32.6858
lfingers 7.12502
lthumb -18.4344 61.8323
rfemur -7.62051 -1.1471 22.2395
rtibia 22.3019
rfoot -21.3031 -20.8053
rtoes -9.23854
lfemur -36.744 6.22478 -19.9067
ltibia 34.1461
lfoot -3.63962 3.6146
ltoes -5.11896
501
root 10.3553 17.5052 -2.26443 10.4142 -15.3449 -2.46901
lowerback 16.2584 0.726727 1.59777
upperback 9.49975 1.05829 -0.0648068
thorax 1.0191 0.553313 -1.12661
lowerneck -10.7998 6.23825 2.01894
upperneck -12.868 7.69752 -6.83852
head -1.92503 3.8807 -2.3974
rclavicle -7.55382e-015 1.31198e-014
rhumerus 31.8423 49.3483 -83.1732
rradius 34.4746
rwrist -29.0331
rhand -42.7883 16.6168
rfingers 7.12502
rthumb -15.6545 -12.7698
lclavicle -7.55382e-015 1.31198e-014
lhumerus 34.081 -14.1236 82.8116
lradius 44.7788
lwrist 48.7309
lhand -44.1715 33.0364
lfingers 7.12502
lthumb -16.9863 62.3136
rfemur -6.93357 -1.42549 21.9499
rtibia 22.3939
rfoot -21.3762 -21.2285
rtoes -10.4069
lfemur -35.9873 5.75619 -20.2072
ltibia 33.7982
lfoot -3.39713 3.5328
ltoes -3.87177
502
root 10.3211 17.5037 -2.29813 9.84831 -14.8057 -2.0686
lowerback 16.0803 0.745911 1.35291
upperback 9.41148 1.05645 0.0208803
thorax 1.00939 0.542242 -0.896707
lowerneck -11.2213 6.15257 1.74552
upperneck -12.6735 7.631 -6.52024
head -1.81779 3.84497 -2.22625
rclavicle -2.0276e-014 2.79292e-014
rhumerus 32.9019 49.3598 -82.0649
rradius 35.0729
rwrist -29.6229
rhand -42.4359 17.2519
rfingers 7.12502
rthumb -15.3151 -12.161
lclavicle -2.0276e-014 2.79292e-014
lhumerus 34.8367 -14.5497 81.9795
lradius 45.4031
lwrist 49.0081
lhand -44.3401 33.831
lfingers 7.12502
lthumb -17.1486 63.0943
rfemur -6.55525 -1.60585 21.8051
rtibia 22.5748
rfoot -21.2082 -21.7755
rtoes -12.2658
lfemur -35.3948 5.37742 -20.42
ltibia 33.3561
lfoot -3.11171 3.28062
ltoes -4.13119
503
root 10.2871 17.5182 -2.31736 9.17 -14.3148 -1.72568
lowerback 15.9369 0.814109 1.25042
upperback 9.30083 1.13822 0.147126
thorax 0.962374 0.577182 -0.717615
lowerneck -11.5162 6.01762 1.65536
upperneck -12.3526 7.46566 -6.53817
head -1.67325 3.7563 -2.2005
rclavicle -1.39336e-014 -5.18393e-015
rhumerus 33.4689 48.9907 -81.4066
rradius 35.4827
rwrist -29.8993
rhand -41.8967 18.0186
rfingers 7.12502
rthumb -14.7956 -11.4333
lclavicle -1.39336e-014 -5.18393e-015
lhumerus 35.4768 -15.0616 81.3343
lradius 45.8602
lwrist 48.5358
lhand -45.7039 34.056
lfingers 7.12502
lthumb -18.4609 63.2
rfemur -5.97714 -1.69052 21.6129
rtibia 22.7511
rfoot -21.6279 -21.8872
rtoes -11.2527
lfemur -34.5461 4.99217 -20.5756
ltibia 32.9309
lfoot -2.98968 3.11874
ltoes -4.78841
504
root 10.256 17.5286 -2.339 8.4601 -13.7372 -1.38648
lowerback 15.7575 0.831685 1.245
upperback 9.22075 1.16582 0.267904
thorax 0.967969 0.589693 -0.590108
lowerneck -11.7852 5.8753 1.59629
upperneck -11.8881 7.28795 -6.67556
head -1.48098 3.65917 -2.21697
rclavicle 4.34344e-014 -5.76476e-015
rhumerus 34.1591 48.6351 -80.6375
rradius 35.6114
rwrist -29.3705
rhand -42.2575 19.0121
rfingers 7.12502
rthumb -15.1432 -10.4139
lclavicle 4.34344e-014 -5.76476e-015
lhumerus 36.0028 -15.4305 80.9543
lradius 46.6564
lwrist 48.095
lhand -46.1077 34.2583
lfingers 7.12502
lthumb -18.8492 63.3651
rfemur -5.28139 -1.90727 21.41
rtibia 22.8523
rfoot -21.9469 -21.8578
rtoes -10.0541
lfemur -33.7543 4.57541 -20.7618
ltibia 32.5529
lfoot -2.98588 3.29739
ltoes -1.91617
505
root 10.2344 17.5321 -2.35785 8.04705 -13.2535 -1.22114
lowerback 15.1826 0.817762 1.39443
upperback 9.18634 1.16434 0.360815
thorax 1.23356 0.596252 -0.567743
lowerneck -12.1994 5.7618 1.60995
upperneck -11.426 7.15127 -6.65133
head -1.26949 3.57508 -2.18892
rclavicle 1.40143e-014 9.83984e-015
rhumerus 35.6321 48.6158 -79.2743
rradius 35.5216
rwrist -28.4515
rhand -47.5004 22.5829
rfingers 7.12502
rthumb -20.1883 -6.38806
lclavicle 1.40143e-014 9.83984e-015
lhumerus 36.4908 -15.4431 80.7062
lradius 47.7468
lwrist 47.615
lhand -45.7839 34.752
lfingers 7.12502
lthumb -18.5378 63.8887
rfemur -4.86749 -2.17006 21.3649
rtibia 22.9467
rfoot -21.8109 -21.9426
rtoes -11.5071
lfemur -33.2863 4.11586 -20.7957
ltibia 32.2006
lfoot -2.90216 3.62385
ltoes 1.14928
